HIERARCHY
ROOT Hips
{
	OFFSET 0.000000 89.005402 0.000000
	CHANNELS 6 Xposition Yposition Zposition Xrotation Yrotation Zrotation
	JOINT Spine
	{
		OFFSET 0.116900 10.681000 0.373400
		CHANNELS 3 Xrotation Yrotation Zrotation
		JOINT Spine1
		{
			OFFSET 0.000000 13.840401 0.053500
			CHANNELS 3 Xrotation Yrotation Zrotation
			JOINT Spine2
			{
				OFFSET 0.000000 14.712700 -0.366200
				CHANNELS 3 Xrotation Yrotation Zrotation
				JOINT Neck
				{
					OFFSET 0.000000 35.415497 -3.314200
					CHANNELS 3 Xrotation Yrotation Zrotation
					JOINT Head
					{
						OFFSET 0.000000 16.899200 1.218300
						CHANNELS 3 Xrotation Yrotation Zrotation
						JOINT HeadTop_End
						{
							OFFSET 0.000000 22.206207 2.192500
							CHANNELS 3 Xrotation Yrotation Zrotation
							End Site
							{
								OFFSET 0.000000 22.314178 0.000000
							}
						}
					}
				}
				JOINT LeftShoulder
				{
					OFFSET 12.896400 26.716293 -4.548400
					CHANNELS 3 Xrotation Yrotation Zrotation
					JOINT LeftArm
					{
						OFFSET 19.027000 -4.857010 -1.718400
						CHANNELS 3 Xrotation Yrotation Zrotation
						JOINT LeftForeArm
						{
							OFFSET 24.179897 0.000000 0.000000
							CHANNELS 3 Xrotation Yrotation Zrotation
							JOINT LeftHand
							{
								OFFSET 27.156403 0.000000 0.000000
								CHANNELS 3 Xrotation Yrotation Zrotation
								JOINT LeftHandIndex1
								{
									OFFSET 16.441200 0.000000 0.000000
									CHANNELS 3 Xrotation Yrotation Zrotation
									JOINT LeftHandIndex2
									{
										OFFSET 4.821899 0.000000 0.000000
										CHANNELS 3 Xrotation Yrotation Zrotation
										JOINT LeftHandIndex3
										{
											OFFSET 6.386497 0.000000 0.000000
											CHANNELS 3 Xrotation Yrotation Zrotation
											JOINT LeftHandIndex4
											{
												OFFSET 5.188988 0.000000 0.000000
												CHANNELS 3 Xrotation Yrotation Zrotation
												End Site
												{
													OFFSET -0.178703 5.185913 0.000177
												}
											}
										}
									}
								}
								JOINT LeftHandThumb1
								{
									OFFSET 6.534897 -5.032593 5.900300
									CHANNELS 3 Xrotation Yrotation Zrotation
									JOINT LeftHandThumb2
									{
										OFFSET 3.818176 -2.204422 2.204423
										CHANNELS 3 Xrotation Yrotation Zrotation
										JOINT LeftHandThumb3
										{
											OFFSET 3.252098 -1.877594 1.877601
											CHANNELS 3 Xrotation Yrotation Zrotation
											JOINT LeftHandThumb4
											{
												OFFSET 5.251778 -3.032120 3.032117
												CHANNELS 3 Xrotation Yrotation Zrotation
												End Site
												{
													OFFSET 0.000023 6.780014 0.000000
												}
											}
										}
									}
								}
							}
						}
					}
				}
				JOINT RightShoulder
				{
					OFFSET -12.896300 26.716293 -4.548400
					CHANNELS 3 Xrotation Yrotation Zrotation
					JOINT RightArm
					{
						OFFSET -19.027000 -4.857010 -1.718400
						CHANNELS 3 Xrotation Yrotation Zrotation
						JOINT RightForeArm
						{
							OFFSET -24.179897 0.000000 0.000000
							CHANNELS 3 Xrotation Yrotation Zrotation
							JOINT RightHand
							{
								OFFSET -27.156403 0.000000 0.000000
								CHANNELS 3 Xrotation Yrotation Zrotation
								JOINT RightHandThumb1
								{
									OFFSET -6.591202 -4.852203 5.988100
									CHANNELS 3 Xrotation Yrotation Zrotation
									JOINT RightHandThumb2
									{
										OFFSET -3.818176 -2.204422 2.204423
										CHANNELS 3 Xrotation Yrotation Zrotation
										JOINT RightHandThumb3
										{
											OFFSET -3.252098 -1.877594 1.877601
											CHANNELS 3 Xrotation Yrotation Zrotation
											JOINT RightHandThumb4
											{
												OFFSET -5.251778 -3.032120 3.032117
												CHANNELS 3 Xrotation Yrotation Zrotation
												End Site
												{
													OFFSET -0.000023 6.780014 0.000000
												}
											}
										}
									}
								}
								JOINT RightHandIndex1
								{
									OFFSET -16.029404 0.000000 0.000000
									CHANNELS 3 Xrotation Yrotation Zrotation
									JOINT RightHandIndex2
									{
										OFFSET -5.213303 0.000000 0.000000
										CHANNELS 3 Xrotation Yrotation Zrotation
										JOINT RightHandIndex3
										{
											OFFSET -6.386528 0.000000 0.000000
											CHANNELS 3 Xrotation Yrotation Zrotation
											JOINT RightHandIndex4
											{
												OFFSET -5.189026 0.000000 0.000000
												CHANNELS 3 Xrotation Yrotation Zrotation
												End Site
												{
													OFFSET 0.236702 5.183624 0.001972
												}
											}
										}
									}
								}
							}
						}
					}
				}
			}
		}
	}
	JOINT LeftUpLeg
	{
		OFFSET 14.073000 -7.904099 -1.463000
		CHANNELS 3 Xrotation Yrotation Zrotation
		JOINT LeftLeg
		{
			OFFSET -0.109806 -34.073280 4.093200
			CHANNELS 3 Xrotation Yrotation Zrotation
			JOINT LeftFoot
			{
				OFFSET 0.109806 -29.899420 -6.319000
				CHANNELS 3 Xrotation Yrotation Zrotation
				JOINT LeftToeBase
				{
					OFFSET 1.551100 -14.988700 20.535801
					CHANNELS 3 Xrotation Yrotation Zrotation
					JOINT LeftToe_End
					{
						OFFSET 0.221200 0.570800 13.248301
						CHANNELS 3 Xrotation Yrotation Zrotation
						End Site
						{
							OFFSET 0.000000 13.262435 0.000000
						}
					}
				}
			}
		}
	}
	JOINT RightUpLeg
	{
		OFFSET -13.839300 -7.904099 -1.463000
		CHANNELS 3 Xrotation Yrotation Zrotation
		JOINT RightLeg
		{
			OFFSET 0.109694 -34.073219 4.093300
			CHANNELS 3 Xrotation Yrotation Zrotation
			JOINT RightFoot
			{
				OFFSET -0.109694 -29.899384 -6.319200
				CHANNELS 3 Xrotation Yrotation Zrotation
				JOINT RightToeBase
				{
					OFFSET -1.551100 -14.988700 20.535801
					CHANNELS 3 Xrotation Yrotation Zrotation
					JOINT RightToe_End
					{
						OFFSET -0.221200 0.570900 13.248299
						CHANNELS 3 Xrotation Yrotation Zrotation
						End Site
						{
							OFFSET 0.000000 13.262440 0.000000
						}
					}
				}
			}
		}
	}
}
MOTION
Frames: 6
Frame Time: 0.033333
4.397200 75.483292 21.180571 1.061761 -53.995121 2.194032 6.809240 1.071011 -0.394565 10.064075 2.162702 -1.975905 10.053919 2.268960 -1.913848 8.005455 3.767926 -6.440526 12.669101 16.497671 -18.711525 -0.000003 0.000000 0.000000 -1.998255 12.689873 -6.082656 -24.881725 -23.999719 -65.171479 -0.000008 -112.901149 -0.000015 15.718439 1.912292 11.855643 5.468819 6.735368 -78.128041 8.288560 6.736418 -101.829248 5.506368 6.743115 -78.448042 -0.000003 -0.000001 -0.000005 9.056386 10.601977 -5.965575 9.417658 22.103546 3.251311 2.732831 51.440074 6.459205 -0.000001 0.000002 -0.000002 3.976506 15.848645 -5.271397 -25.395337 35.388381 63.759461 -0.000000 125.952486 -0.000015 2.104053 5.538418 -12.307405 -0.815723 -16.226001 6.504800 17.424093 -21.200407 1.267100 18.064092 -57.087647 -8.376551 -0.000000 -0.000003 -0.000003 5.628756 -6.822401 79.026771 7.017411 -6.947884 90.571949 3.897150 -6.245461 63.897041 0.000002 0.000002 -0.000002 -36.548257 2.546383 23.815510 54.951437 -8.465499 6.327862 -14.033155 -8.663937 -27.685490 -6.111969 -0.279655 4.136019 0.000000 -0.000001 -0.000000 -12.514409 -9.870709 -33.180666 44.405580 1.396406 -5.651002 -12.895056 -7.887903 36.657407 -12.923334 0.000491 -0.004391 0.000000 0.000000 0.000000 
4.236834 76.018028 18.863831 0.674883 -54.503349 0.673954 6.766564 0.919442 -0.225952 9.877239 1.984542 -1.074684 9.861836 2.091290 -1.019595 8.087957 3.796750 -6.075942 13.092164 17.117040 -19.135548 0.000004 0.000001 -0.000001 -2.020472 12.451568 -5.166738 -24.166406 -24.137673 -66.559237 -0.000019 -111.469363 -0.000020 15.279729 1.774444 11.477735 5.468819 6.735365 -78.128041 8.288558 6.736418 -101.829255 5.506369 6.743111 -78.448042 0.000003 -0.000003 0.000001 9.056383 10.601978 -5.965574 9.417658 22.103549 3.251314 2.732824 51.440074 6.459207 -0.000000 0.000001 -0.000003 3.965867 16.162164 -4.421226 -25.405765 35.168333 63.821493 0.000000 126.026470 -0.000005 2.242334 5.350832 -12.280594 -0.815722 -16.226002 6.504802 17.424093 -21.200409 1.267104 18.064097 -57.087657 -8.376552 -0.000002 -0.000002 -0.000002 5.628757 -6.822403 79.026771 7.017410 -6.947884 90.571949 3.897152 -6.245464 63.897041 0.000000 0.000001 -0.000001 -33.380982 4.590961 22.598726 55.751484 -7.732846 6.130276 -17.761475 -5.421995 -20.870360 -6.954351 -0.018660 1.075866 -0.000000 -0.000000 0.000000 -15.586437 -9.182374 -31.283240 48.266450 5.408328 -5.105782 -13.252047 -6.508741 32.582748 -15.788706 0.015245 -0.098321 0.000000 0.000000 0.000000 
3.890643 76.092064 16.721420 0.250404 -54.330234 -1.040685 6.565895 0.778595 0.006763 9.481195 1.727085 -0.073074 9.461309 1.829501 -0.029209 8.216492 3.755291 -5.662080 13.753376 17.354090 -19.461779 -0.000002 0.000001 -0.000001 -1.953170 11.925252 -4.330708 -23.473123 -23.453005 -66.690855 -0.000036 -109.137646 -0.000025 13.920576 1.415187 11.039503 5.468820 6.735367 -78.128048 8.288562 6.736422 -101.829255 5.506371 6.743113 -78.448035 0.000001 0.000002 -0.000002 9.056390 10.601976 -5.965573 9.417657 22.103551 3.251312 2.732826 51.440071 6.459205 0.000003 -0.000000 0.000000 3.821799 15.956512 -3.454219 -25.430912 35.153573 64.618767 0.000025 126.333105 -0.000023 2.653255 5.120490 -12.280230 -0.815725 -16.226002 6.504802 17.424098 -21.200407 1.267099 18.064090 -57.087650 -8.376547 0.000001 -0.000002 -0.000000 5.628759 -6.822406 79.026771 7.017412 -6.947885 90.571949 3.897147 -6.245461 63.897034 0.000000 -0.000000 0.000001 -31.358081 5.161072 23.137973 53.640266 -9.192746 6.887523 -18.958537 -0.566669 -18.694953 -5.980760 0.000019 -0.000010 0.000000 -0.000000 -0.000000 -16.944806 -9.655102 -29.578144 50.402763 9.185698 -4.499259 -15.595987 -3.606794 28.076406 -17.077061 0.056777 -0.274021 -0.000000 -0.000002 -0.000000 
3.540243 75.559219 14.756166 -0.309110 -53.343842 -2.440264 6.372335 0.713006 0.173597 9.138125 1.537508 0.507389 9.117957 1.624301 0.543709 8.161300 3.615923 -5.173218 14.322619 16.985144 -19.476530 0.000001 -0.000001 -0.000000 -1.778166 11.133365 -3.806067 -23.651663 -22.571629 -65.206252 0.000108 -106.258742 0.000099 12.365451 0.893088 10.750407 5.468816 6.735366 -78.128041 8.288560 6.736421 -101.829255 5.506368 6.743114 -78.448035 -0.000002 -0.000001 -0.000003 9.056381 10.601979 -5.965579 9.417659 22.103551 3.251308 2.732828 51.440074 6.459204 -0.000001 0.000002 -0.000002 3.494263 14.945137 -2.274958 -26.101013 35.449256 66.369324 -0.000024 126.497057 0.000017 3.219380 5.013626 -12.203531 -0.815723 -16.226002 6.504801 17.424093 -21.200410 1.267101 18.064092 -57.087650 -8.376553 0.000001 0.000002 -0.000000 5.628756 -6.822403 79.026764 7.017408 -6.947890 90.571949 3.897148 -6.245458 63.897034 0.000002 0.000003 -0.000002 -30.541990 4.541541 24.243094 51.413074 -10.587270 8.299642 -19.776504 2.463737 -20.344757 -4.417062 -0.000001 -0.000000 -0.000000 -0.000001 -0.000000 -16.195963 -10.033124 -29.147634 50.527499 8.885754 -4.334869 -18.434593 0.280564 27.715796 -16.117662 0.197370 -0.831816 0.000000 0.000000 -0.000000 
3.221332 74.788361 12.855493 -1.191992 -51.819525 -3.183955 6.287980 0.761246 0.084111 9.020737 1.563295 0.397918 9.003167 1.632666 0.435166 7.904148 3.400537 -4.693698 14.450319 16.058683 -18.895078 0.000003 -0.000000 0.000000 -1.520555 10.180558 -3.721673 -24.848129 -22.026803 -62.347073 0.000113 -103.610637 0.000113 11.214821 0.352434 10.491290 5.468818 6.735366 -78.128041 8.288554 6.736423 -101.829255 5.506369 6.743111 -78.448035 -0.000001 0.000001 0.000002 9.056382 10.601976 -5.965576 9.417656 22.103547 3.251312 2.732824 51.440074 6.459207 0.000001 -0.000001 0.000001 3.145177 13.718981 -0.945428 -27.403716 35.701225 68.749638 0.000026 126.333679 -0.000031 3.617489 5.114127 -12.168047 -0.815726 -16.226009 6.504801 17.424096 -21.200409 1.267100 18.064090 -57.087653 -8.376550 -0.000002 -0.000002 -0.000001 5.628754 -6.822406 79.026771 7.017411 -6.947886 90.571949 3.897150 -6.245460 63.897041 -0.000002 -0.000001 -0.000003 -30.429961 3.833172 24.737820 49.594297 -10.782191 9.437115 -19.808073 2.479856 -22.301476 -2.630946 -0.000005 -0.000003 -0.000000 -0.000000 -0.000000 -13.385211 -10.214332 -28.852604 49.224456 9.170825 -4.973463 -20.307773 -2.604574 28.289532 -14.680551 0.052759 -0.217079 -0.000000 0.000000 -0.000000 
2.797702 74.003654 10.927457 -2.309818 -49.943231 -3.368782 6.259976 0.896774 -0.165812 9.045057 1.811814 -0.165612 9.029091 1.877585 -0.120992 7.713834 3.159197 -4.370663 14.311901 14.799741 -17.729713 -0.000002 -0.000000 0.000001 -1.266161 9.312049 -3.904198 -26.462438 -21.901936 -59.604718 0.000024 -102.061475 0.000033 10.596538 -0.104989 10.235797 5.468819 6.735367 -78.128041 8.288558 6.736423 -101.829255 5.506370 6.743111 -78.448042 0.000001 0.000001 -0.000002 9.056383 10.601978 -5.965575 9.417659 22.103541 3.251311 2.732828 51.440071 6.459204 0.000000 -0.000001 -0.000000 2.993075 13.323732 0.186709 -28.411686 35.312191 70.734388 0.000057 125.981296 -0.000084 3.588497 5.348811 -12.247207 -0.815723 -16.226007 6.504802 17.424091 -21.200409 1.267104 18.064095 -57.087653 -8.376549 0.000002 -0.000002 -0.000003 5.628760 -6.822408 79.026771 7.017410 -6.947884 90.571949 3.897145 -6.245458 63.897034 -0.000002 -0.000004 0.000004 -31.409393 2.929386 25.109698 48.730459 -10.653093 9.906010 -18.042209 0.392128 -24.368262 -1.447273 0.000005 -0.000001 0.000000 0.000000 0.000000 -8.937463 -10.528768 -28.700639 46.602828 7.776406 -5.714574 -21.950070 -8.250023 30.578248 -11.432798 0.004391 -0.024966 0.000000 0.000000 -0.000000 
